<svg id="Capa_1" data-name="Capa 1" xmlns="http://www.w3.org/2000/svg" viewBox="0 0 512 415.92"><defs><style>.cls-1{fill:#fff;}</style></defs><path class="cls-1" d="M512,49.25a218.74,218.74,0,0,1-60.48,16.57,104.41,104.41,0,0,0,46.18-58,210.09,210.09,0,0,1-66.56,25.41A105,105,0,0,0,249.57,105,108.13,108.13,0,0,0,252,128.93C164.74,124.67,87.52,82.85,35.65,19.14A105,105,0,0,0,67.9,159.42,103.7,103.7,0,0,1,20.48,146.5v1.15a105.43,105.43,0,0,0,84.1,103.13,104.72,104.72,0,0,1-27.52,3.46,92.76,92.76,0,0,1-19.88-1.79c13.6,41.57,52.2,72.13,98.08,73.12A210.91,210.91,0,0,1,25.12,370.34,198.86,198.86,0,0,1,0,368.9,295.54,295.54,0,0,0,161,416c193.16,0,298.76-160,298.76-298.69,0-4.64-.16-9.12-.39-13.57A209.33,209.33,0,0,0,512,49.25Z" transform="translate(0 -0.08)"/></svg>